<?xml version="1.0"?>
<svg version="1.1" xmlns="http://www.w3.org/2000/svg" width="143" height="49" style=""><path fill="#050501" d="M16.84,32.26l0-7.52l-1.2-0.48l0-1.36l3.68-0.08l1.52,0c3.2,0,5.088,1.888,5.088,5.488s-2.08,5.792-5.328,5.792l-4.96,0l0-1.36z M19.32,32.18l1.328,0c1.552,0,2.592-0.912,2.592-3.792c0-2.688-0.912-3.648-2.48-3.648l-1.44,0l0,7.44z M36.20816,30.308l-5.312,0c0.096,1.28,0.832,2.032,1.936,2.032c1.328,0,2.688-0.752,2.688-0.752l0.688,1.328s-1.6,1.344-3.648,1.344c-2.752,0-4.16-1.6-4.16-4.32c0-2.8,1.584-4.64,4.272-4.64c2.384,0,3.632,1.472,3.632,3.76c0,0.608-0.096,1.2-0.096,1.248z M30.92816,28.82l2.896,0c0-0.912-0.384-1.6-1.312-1.6c-0.896,0-1.456,0.656-1.584,1.6z M53.46432,32.82l0,1.28l-4.336,0l0-1.28l0.848-0.4l0-3.808c0-0.88-0.256-1.312-0.928-1.312c-1.04,0-1.776,0.832-1.776,0.832l0,4.288l0.832,0.4l0,1.28l-4.064,0l0-1.28l0.832-0.4l0-3.808c0-0.88-0.224-1.312-0.912-1.312c-1.04,0-1.792,0.832-1.792,0.832l0,4.288l0.848,0.4l0,1.28l-4.48,0l0-1.28l1.232-0.4l0-5.2l-1.216-0.4l0-1.28l3.344-0.08l0.112,1.136s1.392-1.296,2.8-1.296c1.136,0,1.84,0.528,2.208,1.376c0.272-0.272,1.472-1.376,2.896-1.376c1.68,0,2.464,1.088,2.464,2.88l0,4.24z M59.85648,25.3c2.592,0,4.032,1.568,4.032,4.32c0,2.88-1.68,4.64-4.272,4.64c-2.608,0-4.08-1.36-4.08-4.4c0-2.88,1.712-4.56,4.32-4.56z M59.77648,27.22c-1.168,0-1.76,0.64-1.76,2.56c0,1.76,0.512,2.56,1.68,2.56c1.152,0,1.712-0.72,1.712-2.64c0-1.632-0.48-2.48-1.632-2.48z M71.00064,28.74l0,2l-4.56,0l0-2l4.56,0z M73.5528,34.1l0-1.36l1.2-0.48l0-7.52l-1.2-0.48l0-1.36l3.68-0.08l1.52,0c2.448,0,3.888,1.28,3.888,3.36c0,2.688-1.648,4-4.56,4l-0.848,0l0,2.08l1.2,0.48l0,1.36l-4.88,0z M77.2328,28.308l0.848,0c1.328,0,2.08-0.624,2.08-1.808c0-1.04-0.56-1.76-1.648-1.76l-1.28,0l0,3.568z M87.99296,25.46l0.144,1.104s1.152-1.264,2.224-1.264c0.88,0,1.488,0.288,1.488,0.288l-0.128,3.072l-1.44,0l-0.24-1.36c-0.928,0-1.728,0.896-1.728,0.896l0,4.224l1.6,0.4l0,1.28l-5.28,0l0-1.28l1.28-0.4l0-5.2l-1.28-0.4l0-1.28z M97.92112,25.3c2.592,0,4.032,1.568,4.032,4.32c0,2.88-1.68,4.64-4.272,4.64c-2.608,0-4.08-1.36-4.08-4.4c0-2.88,1.712-4.56,4.32-4.56z M97.84112,27.22c-1.168,0-1.76,0.64-1.76,2.56c0,1.76,0.512,2.56,1.68,2.56c1.152,0,1.712-0.72,1.712-2.64c0-1.632-0.48-2.48-1.632-2.48z M105.17728,22.82c0-0.864,0.608-1.44,1.376-1.44c0.864,0,1.344,0.464,1.344,1.44c0,0.88-0.624,1.456-1.344,1.456c-0.864,0-1.376-0.512-1.376-1.456z M107.86528,25.46l0,8.432c0,2.768-0.816,4.128-3.52,4.128c-0.512,0-1.216-0.112-1.216-0.112l0.192-1.568l0.832,0c0.96,0,1.312-0.56,1.312-1.584l0-7.536l-1.28-0.4l0-1.28z M118.49744,30.308l-5.312,0c0.096,1.28,0.832,2.032,1.936,2.032c1.328,0,2.688-0.752,2.688-0.752l0.688,1.328s-1.6,1.344-3.648,1.344c-2.752,0-4.16-1.6-4.16-4.32c0-2.8,1.584-4.64,4.272-4.64c2.384,0,3.632,1.472,3.632,3.76c0,0.608-0.096,1.2-0.096,1.248z M113.21744,28.82l2.896,0c0-0.912-0.384-1.6-1.312-1.6c-0.896,0-1.456,0.656-1.584,1.6z M127.6256,31.492l0.8,1.408c-0.4,0.352-1.648,1.36-3.44,1.36c-2.64,0-4.16-1.632-4.16-4.352c0-2.848,1.6-4.608,4.4-4.608c1.376,0,2.8,0.56,2.8,0.56l-0.08,2.624l-1.44,0l-0.224-1.136s-0.464-0.128-1.104-0.128c-1.152,0-1.872,0.768-1.872,2.368c0,1.744,0.672,2.752,2,2.752c1.12,0,1.824-0.56,2.32-0.848z M136.01776,32.052l0.576,1.216c-0.784,0.576-1.68,0.992-2.72,0.992c-1.84,0-2.368-1.28-2.368-3.12l0-3.68l-1.488,0l0-1.552l1.488-0.208l0-2.208l2.4-0.432l0,2.64l2.24,0l0,1.76l-2.24,0l0,3.52c0,1.024,0.176,1.44,0.848,1.44c0.432,0,1.056-0.256,1.264-0.368z"/><path fill="#" d=""/></svg>
